

The Rock 1996 BluRay 1080p ac3 x264-LoNeWoLf

Encoded by Tequila-Bob a.k.a. bobnjeff a.k.a.LoNeWoLf

Source NTSC BluRay Disc


 
http://www.imdb.com/title/tt0117500/

Genres:Action | Adventure | Thriller 

Rated R for strong violence, language and a sex scene

The Rock (1996) 
  136 min  -  Action | Adventure | Thriller   -  7 June 1996 (USA) 
  7.3/10 X  Users: 7.3/10 (110,389 votes) 382 reviews | Critics: 102 reviews 
  A renegade general and his group of U.S. Marines take over Alcatraz and threaten San Francisco Bay   with biological weapons. A chemical weapons specialist and the only man to have ever escaped from the   Rock attempt to prevent chaos. 


Director: Michael Bay
Writers: David Weisberg (story), Douglas Cook (story), and 3 more credits » 
Stars:Sean Connery, Nicolas Cage and Ed Harris

Storyline

Stanley Goodspeed, who lives in Washington D.C., is a biochemist who works for the FBI. Soon after his fiancée Carla Pestalozzi announces that she is pregnant, Stanley gets a call from FBI director James Womack. Womack tells Stanley that San Francisco's Alcatraz Island has been taken hostage, along with 81 tourists, by marine General Francis Xavier Hummel who, for years, has been protesting the government's refusal to pay benefits to families of war veterans who died during covert military operations. The death of his wife Barbara Hummel on March 9, 1995 drove General Hummel over the edge, and now he's holding hostages in order to get his point across. Stanley is needed because General Himmel has stolen some VX gas warheads and has announced that he will launch them onto San Francisco unless his demands are met. Stanley knows how to disarm the bombs, but Stanley needs someone who knows Alcatraz well enough to get him inside

Cast
Cast overview, first billed only: 
  Sean Connery  ...  John Patrick Mason  
  Nicolas Cage  ...  Dr. Stanley Goodspeed  
  Ed Harris  ...  Brigadier General Francis X. Hummel, USMC  
  John Spencer  ...  FBI Director James Womack  
  David Morse  ...  Major Tom Baxter  
  William Forsythe  ...  Special Agent Ernest Paxton  
  Michael Biehn  ...  Commander Anderson  
  Vanessa Marcil  ...  Carla Pestalozzi  
  John C. McGinley  ...  Marine Captain Hendrix (as John C. Mc Ginley)  
  Gregory Sporleder  ...  Captain Frye  
  Tony Todd  ...  Captain Darrow  
  Bokeem Woodbine  ...  Sergeant Crisp  
  Jim Maniaci  ...  Private Scarpetti  
  Greg Collins  ...  Private Gamble  
  Brendan Kelly  ...  Private Cox  


[img]http://torrent-stats.info/cf34/dd476450.png[/img]


See the full size 1920x816 PNG files at the link below

 
http://s1015.photobucket.com/albums/af279/tequila-bob/The%20Rock%201996/



Format : Matroska 
File size : 8.04 GiB 
Duration : 2h 16mn 
Overall bit rate : 8 428 Kbps 
Encoded date : UTC 2010-12-05 12:59:22 
Writing application : mkvmerge v4.4.0 ('Die Wiederkehr') built on Oct 31 2010 21:52:48 
Writing library : libebml v1.0.0 + libmatroska v1.0.0 

Video 
ID : 1 
Format : AVC 
Format/Info : Advanced Video Codec 
Format profile : High@L4.1 
Format settings, CABAC : Yes 
Format settings, ReFrames : 5 frames 
Muxing mode : Container profile=Unknown@4.1 
Codec ID : V_MPEG4/ISO/AVC 
Duration : 2h 16mn 
Bit rate : 7 689 Kbps 
Width : 1 920 pixels 
Height : 816 pixels 
Display aspect ratio : 2.35:1 
Frame rate : 23.976 fps 
Color space : YUV 
Chroma subsampling : 4:2:0 
Bit depth : 8 bits 
Scan type : Progressive 
Bits/(Pixel*Frame) : 0.205 
Stream size : 7.27 GiB (90%) 
Writing library : x264 core 98 r1649 c54c47d 
Encoding settings : cabac=1 / ref=6 / deblock=1:0:0 / analyse=0x3:0x133 / me=umh / subme=9 / psy=1 / psy_rd=1.00:0.15 / mixed_ref=1 / me_range=24 / chroma_me=1 / trellis=1 / 8x8dct=1 / cqm=0 / deadzone=21,11 / fast_pskip=1 / chroma_qp_offset=-3 / threads=6 / sliced_threads=0 / nr=0 / decimate=1 / interlaced=0 / constrained_intra=0 / bframes=4 / b_pyramid=1 / b_adapt=1 / b_bias=0 / direct=1 / weightb=1 / weightp=2 / keyint=250 / keyint_min=25 / scenecut=40 / intra_refresh=0 / rc_lookahead=50 / rc=2pass / mbtree=1 / bitrate=7689 / ratetol=1.0 / qcomp=0.60 / qpmin=10 / qpmax=51 / qpstep=4 / cplxblur=20.0 / qblur=0.5 / ip_ratio=1.40 / aq=1:1.50 
Language : English 

Audio 
ID : 2 
Format : AC-3 
Format/Info : Audio Coding 3 
Mode extension : CM (complete main) 
Codec ID : A_AC3 
Duration : 2h 16mn 
Bit rate mode : Constant 
Bit rate : 640 Kbps 
Channel(s) : 6 channels 
Channel positions : Front: L C R, Side: L R, LFE 
Sampling rate : 48.0 KHz 
Bit depth : 16 bits 
Stream size : 626 MiB (8%) 
Title : 3/2+1 
Language : English 

Text #1 
Language : English 
Text #2 
Language : French 
Text #3 
Language : Spanish 
Text #4 
Language : French 
Text #5 
Language : Spanish 
Text #6 
Language : English 

Menu & Chapters 32


See the full size 1920x816 PNG files at the link below

 
http://s1015.photobucket.com/albums/af279/tequila-bob/The%20Rock%201996/



